<mxfile host="app.diagrams.net" agent="Mozilla/5.0 (Macintosh; Intel Mac OS X 10_15_7) AppleWebKit/537.36 (KHTML, like Gecko) Chrome/138.0.0.0 Safari/537.36" version="28.0.4">
  <diagram name="Pagina-1" id="H1lY19G6VuzrHVFR-Y-S">
    <mxGraphModel dx="1318" dy="761" grid="1" gridSize="10" guides="1" tooltips="1" connect="1" arrows="1" fold="1" page="1" pageScale="1" pageWidth="827" pageHeight="1169" math="0" shadow="0">
      <root>
        <mxCell id="0" />
        <mxCell id="1" parent="0" />
        <mxCell id="0HXHx3EMs_etBbngewQs-1" value="" style="shape=cube;whiteSpace=wrap;html=1;boundedLbl=1;backgroundOutline=1;darkOpacity=0.05;darkOpacity2=0.1;size=70;direction=east;flipH=1;fillColor=#ffe6cc;strokeColor=#d79b00;" vertex="1" parent="1">
          <mxGeometry x="699" y="150" width="80" height="240" as="geometry" />
        </mxCell>
        <mxCell id="0HXHx3EMs_etBbngewQs-2" value="" style="shape=cube;whiteSpace=wrap;html=1;boundedLbl=1;backgroundOutline=1;darkOpacity=0.05;darkOpacity2=0.1;size=20;direction=east;flipH=1;fillColor=#ffe6cc;strokeColor=#d79b00;" vertex="1" parent="1">
          <mxGeometry x="461" y="246" width="40" height="73.13" as="geometry" />
        </mxCell>
        <mxCell id="0HXHx3EMs_etBbngewQs-3" value="" style="shape=cube;whiteSpace=wrap;html=1;boundedLbl=1;backgroundOutline=1;darkOpacity=0.05;darkOpacity2=0.1;size=3;direction=east;flipH=1;fillColor=#dae8fc;strokeColor=#6c8ebf;" vertex="1" parent="1">
          <mxGeometry x="44.5" y="286" width="74" height="8" as="geometry" />
        </mxCell>
        <mxCell id="0HXHx3EMs_etBbngewQs-4" value="" style="shape=cube;whiteSpace=wrap;html=1;boundedLbl=1;backgroundOutline=1;darkOpacity=0.05;darkOpacity2=0.1;size=7;direction=east;flipH=1;fillColor=#f8cecc;strokeColor=#b85450;" vertex="1" parent="1">
          <mxGeometry x="52.25" y="565" width="30" height="20" as="geometry" />
        </mxCell>
        <mxCell id="0HXHx3EMs_etBbngewQs-5" value="" style="shape=cube;whiteSpace=wrap;html=1;boundedLbl=1;backgroundOutline=1;darkOpacity=0.05;darkOpacity2=0.1;size=7;direction=east;flipH=1;fillColor=#dae8fc;strokeColor=#6c8ebf;" vertex="1" parent="1">
          <mxGeometry x="52.25" y="451" width="30" height="20" as="geometry" />
        </mxCell>
        <mxCell id="0HXHx3EMs_etBbngewQs-6" value="" style="shape=cube;whiteSpace=wrap;html=1;boundedLbl=1;backgroundOutline=1;darkOpacity=0.05;darkOpacity2=0.1;size=7;direction=east;flipH=1;fillColor=#d5e8d4;strokeColor=#82b366;gradientColor=#97d077;" vertex="1" parent="1">
          <mxGeometry x="52.25" y="526" width="30" height="20" as="geometry" />
        </mxCell>
        <mxCell id="0HXHx3EMs_etBbngewQs-7" value="&lt;b&gt;text + noise + reshape&lt;/b&gt;" style="text;html=1;strokeColor=none;fillColor=none;align=center;verticalAlign=middle;whiteSpace=wrap;rounded=0;" vertex="1" parent="1">
          <mxGeometry x="98.5" y="446" width="141.5" height="30" as="geometry" />
        </mxCell>
        <mxCell id="0HXHx3EMs_etBbngewQs-8" value="" style="shape=cube;whiteSpace=wrap;html=1;boundedLbl=1;backgroundOutline=1;darkOpacity=0.05;darkOpacity2=0.1;size=10;direction=east;flipH=1;fillColor=#ffe6cc;strokeColor=#d79b00;" vertex="1" parent="1">
          <mxGeometry x="307" y="270" width="35" height="40" as="geometry" />
        </mxCell>
        <mxCell id="0HXHx3EMs_etBbngewQs-9" value="1 x 512" style="text;html=1;strokeColor=none;fillColor=none;align=center;verticalAlign=middle;whiteSpace=wrap;rounded=0;" vertex="1" parent="1">
          <mxGeometry x="32" y="306" width="99" height="24" as="geometry" />
        </mxCell>
        <mxCell id="0HXHx3EMs_etBbngewQs-10" value="" style="shape=cube;whiteSpace=wrap;html=1;boundedLbl=1;backgroundOutline=1;darkOpacity=0.05;darkOpacity2=0.1;size=3;direction=east;flipH=1;fillColor=#dae8fc;strokeColor=#6c8ebf;" vertex="1" parent="1">
          <mxGeometry x="126" y="286" width="114" height="8" as="geometry" />
        </mxCell>
        <mxCell id="0HXHx3EMs_etBbngewQs-11" value="1 x (1024 * 8 * 8)" style="text;html=1;strokeColor=none;fillColor=none;align=center;verticalAlign=middle;whiteSpace=wrap;rounded=0;" vertex="1" parent="1">
          <mxGeometry x="132.25" y="306" width="99" height="24" as="geometry" />
        </mxCell>
        <mxCell id="0HXHx3EMs_etBbngewQs-12" value="1024 x 8 x 8" style="text;html=1;strokeColor=none;fillColor=none;align=center;verticalAlign=middle;whiteSpace=wrap;rounded=0;" vertex="1" parent="1">
          <mxGeometry x="226.5" y="330" width="99" height="24" as="geometry" />
        </mxCell>
        <mxCell id="0HXHx3EMs_etBbngewQs-13" value="512 x 16 x 16" style="text;html=1;strokeColor=none;fillColor=none;align=center;verticalAlign=middle;whiteSpace=wrap;rounded=0;" vertex="1" parent="1">
          <mxGeometry x="275" y="236" width="99" height="24" as="geometry" />
        </mxCell>
        <mxCell id="0HXHx3EMs_etBbngewQs-14" value="" style="shape=cube;whiteSpace=wrap;html=1;boundedLbl=1;backgroundOutline=1;darkOpacity=0.05;darkOpacity2=0.1;size=3;direction=east;flipH=1;fillColor=#d5e8d4;strokeColor=#82b366;gradientColor=#97d077;" vertex="1" parent="1">
          <mxGeometry x="361" y="276.55999999999995" width="27" height="26.87" as="geometry" />
        </mxCell>
        <mxCell id="0HXHx3EMs_etBbngewQs-15" value="512 x 1 x 1" style="text;html=1;strokeColor=none;fillColor=none;align=center;verticalAlign=middle;whiteSpace=wrap;rounded=0;" vertex="1" parent="1">
          <mxGeometry x="325" y="319.1299999999999" width="99" height="24" as="geometry" />
        </mxCell>
        <mxCell id="0HXHx3EMs_etBbngewQs-16" value="" style="shape=orEllipse;perimeter=ellipsePerimeter;whiteSpace=wrap;html=1;backgroundOutline=1;" vertex="1" parent="1">
          <mxGeometry x="347" y="285" width="10" height="10" as="geometry" />
        </mxCell>
        <mxCell id="0HXHx3EMs_etBbngewQs-17" value="" style="shape=cube;whiteSpace=wrap;html=1;boundedLbl=1;backgroundOutline=1;darkOpacity=0.05;darkOpacity2=0.1;size=10;direction=east;flipH=1;fillColor=#ffe6cc;strokeColor=#d79b00;" vertex="1" parent="1">
          <mxGeometry x="415" y="269.99" width="35" height="40" as="geometry" />
        </mxCell>
        <mxCell id="0HXHx3EMs_etBbngewQs-18" value="" style="shape=singleArrow;whiteSpace=wrap;html=1;" vertex="1" parent="1">
          <mxGeometry x="391" y="285" width="20" height="10" as="geometry" />
        </mxCell>
        <mxCell id="0HXHx3EMs_etBbngewQs-19" value="" style="shape=cube;whiteSpace=wrap;html=1;boundedLbl=1;backgroundOutline=1;darkOpacity=0.05;darkOpacity2=0.1;size=3;direction=east;flipH=1;fillColor=#d5e8d4;strokeColor=#82b366;gradientColor=#97d077;" vertex="1" parent="1">
          <mxGeometry x="520" y="252" width="67" height="58" as="geometry" />
        </mxCell>
        <mxCell id="0HXHx3EMs_etBbngewQs-20" value="" style="shape=orEllipse;perimeter=ellipsePerimeter;whiteSpace=wrap;html=1;backgroundOutline=1;" vertex="1" parent="1">
          <mxGeometry x="507" y="277.57000000000005" width="10" height="10" as="geometry" />
        </mxCell>
        <mxCell id="0HXHx3EMs_etBbngewQs-21" value="" style="shape=singleArrow;whiteSpace=wrap;html=1;" vertex="1" parent="1">
          <mxGeometry x="594" y="277.57000000000005" width="20" height="10" as="geometry" />
        </mxCell>
        <mxCell id="0HXHx3EMs_etBbngewQs-22" value="" style="shape=cube;whiteSpace=wrap;html=1;boundedLbl=1;backgroundOutline=1;darkOpacity=0.05;darkOpacity2=0.1;size=20;direction=east;flipH=1;fillColor=#ffe6cc;strokeColor=#d79b00;" vertex="1" parent="1">
          <mxGeometry x="624" y="244.42999999999995" width="40" height="73.13" as="geometry" />
        </mxCell>
        <mxCell id="0HXHx3EMs_etBbngewQs-23" value="..." style="text;html=1;strokeColor=none;fillColor=none;align=center;verticalAlign=middle;whiteSpace=wrap;rounded=0;" vertex="1" parent="1">
          <mxGeometry x="633" y="268.99" width="99" height="24" as="geometry" />
        </mxCell>
        <mxCell id="0HXHx3EMs_etBbngewQs-24" value="" style="shape=cube;whiteSpace=wrap;html=1;boundedLbl=1;backgroundOutline=1;darkOpacity=0.05;darkOpacity2=0.1;size=70;direction=east;flipH=1;fillColor=#f8cecc;strokeColor=#b85450;" vertex="1" parent="1">
          <mxGeometry x="716" y="150" width="80" height="240" as="geometry" />
        </mxCell>
        <mxCell id="0HXHx3EMs_etBbngewQs-25" value="256 x 32 x 32" style="text;html=1;strokeColor=none;fillColor=none;align=center;verticalAlign=middle;whiteSpace=wrap;rounded=0;" vertex="1" parent="1">
          <mxGeometry x="437" y="212" width="99" height="24" as="geometry" />
        </mxCell>
        <mxCell id="0HXHx3EMs_etBbngewQs-26" value="256 x 1 x 1" style="text;html=1;strokeColor=none;fillColor=none;align=center;verticalAlign=middle;whiteSpace=wrap;rounded=0;" vertex="1" parent="1">
          <mxGeometry x="504" y="319.13" width="99" height="24" as="geometry" />
        </mxCell>
        <mxCell id="0HXHx3EMs_etBbngewQs-27" value="3 x 215 x 215" style="text;html=1;strokeColor=none;fillColor=none;align=center;verticalAlign=middle;whiteSpace=wrap;rounded=0;" vertex="1" parent="1">
          <mxGeometry x="669.5" y="406" width="99" height="24" as="geometry" />
        </mxCell>
        <mxCell id="0HXHx3EMs_etBbngewQs-28" value="" style="shape=cube;whiteSpace=wrap;html=1;boundedLbl=1;backgroundOutline=1;darkOpacity=0.05;darkOpacity2=0.1;size=3;direction=east;flipH=1;fillColor=#dae8fc;strokeColor=#6c8ebf;" vertex="1" parent="1">
          <mxGeometry x="261" y="280.99" width="30" height="18" as="geometry" />
        </mxCell>
        <mxCell id="0HXHx3EMs_etBbngewQs-29" value="" style="shape=cube;whiteSpace=wrap;html=1;boundedLbl=1;backgroundOutline=1;darkOpacity=0.05;darkOpacity2=0.1;size=7;direction=east;flipH=1;fillColor=#ffe6cc;strokeColor=#d79b00;" vertex="1" parent="1">
          <mxGeometry x="52.25" y="491" width="30" height="20" as="geometry" />
        </mxCell>
        <mxCell id="0HXHx3EMs_etBbngewQs-30" value="&lt;b&gt;conv transpose + batch normalization + relu + dropout&lt;/b&gt;" style="text;html=1;strokeColor=none;fillColor=none;align=center;verticalAlign=middle;whiteSpace=wrap;rounded=0;" vertex="1" parent="1">
          <mxGeometry x="89.75" y="486" width="337.75" height="30" as="geometry" />
        </mxCell>
        <mxCell id="0HXHx3EMs_etBbngewQs-31" value="&lt;b&gt;text attention&lt;/b&gt;" style="text;html=1;strokeColor=none;fillColor=none;align=center;verticalAlign=middle;whiteSpace=wrap;rounded=0;" vertex="1" parent="1">
          <mxGeometry x="89.75" y="521" width="103.75" height="30" as="geometry" />
        </mxCell>
        <mxCell id="0HXHx3EMs_etBbngewQs-32" value="&lt;b&gt;tanh&lt;/b&gt;" style="text;html=1;strokeColor=none;fillColor=none;align=center;verticalAlign=middle;whiteSpace=wrap;rounded=0;" vertex="1" parent="1">
          <mxGeometry x="80" y="560" width="73.75" height="30" as="geometry" />
        </mxCell>
      </root>
    </mxGraphModel>
  </diagram>
</mxfile>
